<?xml version="1.0" encoding="utf-8"?>
<!-- Generator: Adobe Illustrator 19.2.1, SVG Export Plug-In . SVG Version: 6.00 Build 0)  -->
<svg version="1.1" id="Layer_1" xmlns="http://www.w3.org/2000/svg" xmlns:xlink="http://www.w3.org/1999/xlink" x="0px" y="0px"
	 viewBox="0 0 100 100" style="enable-background:new 0 0 100 100;" xml:space="preserve">
<g>
	<path d="M52,36c-4.3,0.4-8.7,0.8-12.9,2c-8.6,2.6-13,8.4-12.8,17c0.1,7.7,4.6,12.9,12.3,13.7c5,0.5,9.7-0.3,13.7-3.6
		c1.2-0.9,2.2-2,3.2-2.9c1.7,1.8,3.2,3.7,4.9,5.4c1.1,1.1,2.1,1,3.2,0.1c2.1-1.8,4.3-3.7,6.4-5.5c1.2-1,1.3-1.9,0.3-3.1
		c-2.5-2.9-3.4-6.2-3.3-10c0.1-6.8,0.1-13.5-0.2-20.3c-0.2-5.2-2.8-9.1-7.6-11.2c-7.3-3.2-14.8-3.2-22.1,0.1
		c-4.9,2.2-8,6.1-9.2,11.4c-0.4,1.7,0.1,2.4,1.8,2.6c2.5,0.3,5.1,0.6,7.6,1c1.4,0.2,2.2-0.2,2.5-1.6c0.9-4.2,5-6.2,8.9-5.6
		c2.5,0.4,4.4,2,4.8,4.4c0.3,2,0.3,4,0.4,5.9c-0.3,0.1-0.5,0.1-0.6,0.2C53,35.9,52.5,35.9,52,36z M51.8,55.8
		c-1.3,1.9-2.9,3.3-5.2,3.7C43,60,40.3,57.7,40,53.7c-0.4-5.2,2.3-8.8,7.5-9.8c2.1-0.4,4.2-0.5,6.4-0.7
		C53.9,47.7,54.4,51.9,51.8,55.8z"/>
	<path d="M75.4,70.9c-0.4,0.1-0.7,0.3-1,0.4c-4.9,2.1-10,3.7-15.2,4.8c-5,1-9.9,1.5-15,1c-6.2-0.6-12-2.6-17.5-5.3
		c-3.5-1.8-7-3.7-10.4-5.5c-1.1-0.6-2.1-0.4-2.7,0.4c-0.6,0.8-0.4,1.8,0.6,2.6c3.5,2.7,6.8,5.6,10.5,8.1c6.8,4.6,14.2,7.4,24,7.4
		c7.9-0.2,16.6-2.6,24.7-7.3c1.4-0.8,2.8-1.8,4.1-2.8c1-0.7,1.2-1.8,0.7-2.8C77.6,71,76.5,70.6,75.4,70.9z"/>
	<path d="M82.9,63.2c-3.8-0.4-7.5,0.1-10.8,2.4c-0.8,0.5-1.2,1.3-0.8,2.2c0.4,0.9,1.2,1,2.1,0.9c1.7-0.2,3.4-0.4,5-0.6
		c0,0,0,0.1,0,0.1c0.6,0,1.2,0,1.8,0c0.7,0,1.1,0.3,0.9,1.1c-0.2,0.8-0.3,1.7-0.6,2.5c-0.5,1.6-1.1,3.1-1.5,4.6
		c-0.1,0.5,0,1.3,0.4,1.6c0.4,0.3,1.2,0.4,1.8,0.3c0.4-0.1,0.8-0.5,1.1-0.8c2.6-2.7,3.9-5.9,4.3-9.6C87.1,64.4,86.5,63.6,82.9,63.2z
		"/>
</g>
</svg>
