<svg id="Layer_1" data-name="Layer 1" xmlns="http://www.w3.org/2000/svg" xmlns:xlink="http://www.w3.org/1999/xlink" viewBox="0 0 100.1 128"><defs><style>.cls-1{fill:none;}.cls-2{clip-path:url(#clip-path);}</style><clipPath id="clip-path" transform="translate(-58.15 -96.56)"><rect class="cls-1" x="43.29" y="95.56" width="128" height="128"/></clipPath></defs><title>fi-social-raspberry</title><g class="cls-2"><path d="M128.29,96.56h10c2.55,0.87,5,1.9,7.65,2.58,7.52,2,8.89,4.23,7.54,11.83-1.69,9.54-7,16.65-14.92,22.48,5.88,3.88,9.26,8.8,10.31,15.54,0.43,2.79,2.59,5.32,4,8,1.8,3.5,4.34,6.82,5.23,10.53,1.85,7.69-9.51,35.83-16.22,40.13-9.31,6-19,11.32-28.54,16.94h-10c-9.53-5.62-19.44-10.72-28.43-17.1-3.84-2.72-6.14-7.94-8.45-12.38-2.11-4.05-2.68-8.94-5-12.85-5.27-9-4.22-19,3.38-26.36,1.11-1.07,2.41-2.55,2.53-3.93C68,144.21,70.8,137.8,78.1,133.48c-7.91-5.72-13.12-12.7-14.87-22-1.52-8-.22-10.32,7.42-12.3,2.6-.67,5.1-1.71,7.65-2.58h10c7.88,2.35,16.62,3.37,19.14,12.14,4-3.3,7.58-6.8,11.71-9.38C121.74,97.68,125.21,97.43,128.29,96.56ZM102,121.16c3.51-1.87,3.89-5.13,2.87-9.05-2.07-8-10.32-10.14-18.53-10.43-6.29-.22-12.64,1.54-19.18,2.44,0.85,4.47,1,8.31,2.38,11.66a46.07,46.07,0,0,0,6.27,10.35c4.17,5.46,14,7,19.37,3.33,4.2-2.84,4.54-5.49.62-8.42-5.11-3.82-10.47-7.3-15.72-10.93l0.45-.82Zm34.73-12,0.41,0.79c-5.3,3.63-10.76,7.06-15.86,11-4.28,3.27-3.9,5.83.69,8.73,6.77,4.27,19.26.1,22.66-7.91,2.27-5.34,3.85-11,6.18-17.74-7.43-.77-13.56-2-19.67-1.86a46.83,46.83,0,0,0-14.63,3.08c-5.74,2.1-6.26,12.49-1.53,15.81Zm1.71,56.29c0-8.89-7.27-16.86-15.52-16.87-6.65,0-11.58,5.16-11.65,12.23-0.09,8.74,7.37,16.77,15.62,16.84C133.65,177.69,138.41,172.65,138.45,165.44Zm-60.33.36c0,7.36,4.56,12.5,11.29,12.59,8.23,0.12,15.88-8,15.88-16.74,0-7.21-4.79-12.27-11.6-12.24C85.46,149.43,78.17,157.1,78.12,165.79Zm30.55,36.84c7.85,0,14.56-6.33,14.42-13.52s-6.55-13-14.35-13c-8.07-.08-14.52,5.79-14.53,13.23S100.65,202.67,108.68,202.64Zm37.6-12.28c-0.08-7.44-3.49-11.1-8.39-8.47-7.72,4.15-12.76,10.61-13.54,19.65-0.38,4.34,1.93,6.32,6.45,6.15C138.74,207.39,146.37,198.84,146.28,190.35Zm-76.15-.17c0.11,7.89,5.63,15,13,16.82,5.92,1.44,9.13-1.45,8-7.46A20.83,20.83,0,0,0,79,184.12C73.45,181.46,70,183.9,70.13,190.18Zm38.21-41.73c3.65-1,6.82-1.49,9.57-2.81,4.22-2,4.48-5.51,1.08-8.74a16,16,0,0,0-21.29-.22c-3.28,3-3.41,5.81.39,8C101.27,146.54,105.06,147.3,108.34,148.45Zm0,58.1c-3.67,1-7.73,1.83-11.58,3.24-2.81,1-3.15,3-.92,5.39a16.94,16.94,0,0,0,24.53-.3c2.58-2.84,2-4.87-1.31-6S112.32,207.4,108.37,206.55Zm-37.56-49c-5.18,2.25-7.78,6.43-8.35,11.81-0.52,5,.82,9.39,4.95,12.66C73.15,176.83,74.94,163.59,70.81,157.53Zm73.39-.21c-3.86,6.7-1.68,20.13,3.71,24.09C155.93,174.05,154.19,161.78,144.2,157.32Zm-1.36-3.76c0.84-12.48-9.41-20.9-20-16.75C128.41,143.77,134.6,149.5,142.85,153.56ZM92.68,136c-12.79-2.28-21.49,5.16-20,17.16A61.19,61.19,0,0,0,92.68,136Z" transform="translate(-58.15 -96.56)"/></g></svg>