<?xml version="1.0" encoding="utf-8"?>
<!-- Generator: Adobe Illustrator 19.2.1, SVG Export Plug-In . SVG Version: 6.00 Build 0)  -->
<svg version="1.1" id="Layer_1" xmlns="http://www.w3.org/2000/svg" xmlns:xlink="http://www.w3.org/1999/xlink" x="0px" y="0px"
	 viewBox="0 0 100 100" style="enable-background:new 0 0 100 100;" xml:space="preserve">
<style type="text/css">
	.st0{clip-path:url(#SVGID_2_);}
</style>
<g>
	<defs>
		<rect id="SVGID_1_" x="12.9" y="11.7" width="74.7" height="75.7"/>
	</defs>
	<clipPath id="SVGID_2_">
		<use xlink:href="#SVGID_1_"  style="overflow:visible;"/>
	</clipPath>
	<g class="st0">
		<path d="M62.5,12.3c1.9,0,3.9,0,5.8,0c1.5,0.5,2.9,1.1,4.5,1.5c4.4,1.2,5.2,2.5,4.4,7c-1,5.6-4.1,9.8-8.7,13.3
			c3.4,2.3,5.4,5.2,6,9.2c0.3,1.7,1.5,3.1,2.3,4.7c1.1,2.1,2.5,4,3.1,6.2c1.1,4.5-5.5,21.2-9.5,23.7c-5.4,3.5-11.1,6.7-16.7,10
			c-1.9,0-3.9,0-5.8,0c-5.6-3.3-11.3-6.3-16.6-10.1c-2.2-1.6-3.6-4.7-4.9-7.3c-1.2-2.4-1.6-5.3-2.9-7.6c-3.1-5.3-2.5-11.2,2-15.6
			c0.6-0.6,1.4-1.5,1.5-2.3c0.4-4.6,2-8.4,6.3-10.9c-4.6-3.4-7.7-7.5-8.7-13c-0.9-4.8-0.1-6.1,4.3-7.3c1.5-0.4,3-1,4.5-1.5
			c1.9,0,3.9,0,5.8,0c4.6,1.4,9.7,2,11.2,7.2c2.4-2,4.4-4,6.8-5.5C58.7,13,60.7,12.8,62.5,12.3z M47.2,26.8c2.1-1.1,2.3-3,1.7-5.4
			c-1.2-4.7-6-6-10.8-6.2c-3.7-0.1-7.4,0.9-11.2,1.4c0.5,2.6,0.6,4.9,1.4,6.9c0.9,2.2,2.2,4.2,3.7,6.1c2.4,3.2,8.1,4.1,11.3,2
			c2.5-1.7,2.6-3.2,0.4-5c-3-2.3-6.1-4.3-9.2-6.5c0.1-0.2,0.2-0.3,0.3-0.5C38.8,22.1,42.9,24.4,47.2,26.8z M67.5,19.7
			c0.1,0.2,0.2,0.3,0.2,0.5c-3.1,2.1-6.3,4.2-9.3,6.5c-2.5,1.9-2.3,3.4,0.4,5.2c4,2.5,11.2,0.1,13.2-4.7c1.3-3.2,2.2-6.5,3.6-10.5
			c-4.3-0.5-7.9-1.2-11.5-1.1c-2.9,0.1-5.8,0.8-8.5,1.8c-3.4,1.2-3.7,7.4-0.9,9.3C59.1,24.4,63.3,22.1,67.5,19.7z M68.5,53
			c0-5.3-4.2-10-9.1-10c-3.9,0-6.8,3.1-6.8,7.2c0,5.2,4.3,9.9,9.1,10C65.7,60.3,68.5,57.3,68.5,53z M33.3,53.2
			c0,4.4,2.7,7.4,6.6,7.4c4.8,0.1,9.3-4.7,9.3-9.9c0-4.3-2.8-7.3-6.8-7.2C37.5,43.6,33.3,48.1,33.3,53.2z M51.1,75
			c4.6,0,8.5-3.7,8.4-8c-0.1-4.2-3.8-7.7-8.4-7.7c-4.7,0-8.5,3.4-8.5,7.8C42.7,71.5,46.4,75.1,51.1,75z M73,67.8c0-4.4-2-6.6-4.9-5
			c-4.5,2.5-7.4,6.3-7.9,11.6C60,76.9,61.4,78.1,64,78C68.6,77.8,73.1,72.8,73,67.8z M28.6,67.7c0.1,4.7,3.3,8.9,7.6,9.9
			c3.5,0.9,5.3-0.9,4.7-4.4c-0.8-4.2-3.3-7.3-7.1-9.1C30.5,62.5,28.6,64,28.6,67.7z M50.9,43c2.1-0.6,4-0.9,5.6-1.7
			c2.5-1.2,2.6-3.3,0.6-5.2c-3.4-3.2-9-3.3-12.4-0.1c-1.9,1.7-2,3.4,0.2,4.7C46.8,41.9,49,42.3,50.9,43z M50.9,77.3
			c-2.1,0.6-4.5,1.1-6.8,1.9c-1.6,0.6-1.8,1.8-0.5,3.2c3.8,4.1,10.6,4,14.3-0.2c1.5-1.7,1.2-2.9-0.8-3.5
			C55.3,78.1,53.2,77.9,50.9,77.3z M29,48.4c-3,1.3-4.5,3.8-4.9,7c-0.3,2.9,0.5,5.6,2.9,7.5C30.4,59.8,31.4,51.9,29,48.4z
			 M71.8,48.2c-2.3,4-1,11.9,2.2,14.2C78.7,58.1,77.7,50.9,71.8,48.2z M71,46c0.5-7.4-5.5-12.4-11.6-9.9C62.6,40.2,66.2,43.6,71,46z
			 M41.8,35.6c-7.5-1.3-12.5,3.1-11.7,10.1C34.7,43.2,38.5,40,41.8,35.6z"/>
	</g>
</g>
</svg>
